<svg width="168" height="38" viewBox="0 0 168 38" fill="none" xmlns="http://www.w3.org/2000/svg">
<g filter="url(#filter0_d_10_677)">
<path fill-rule="evenodd" clip-rule="evenodd" d="M21.3385 4.59446C21.2585 4.42099 21.1304 4.27409 20.9695 4.17112C20.8086 4.06815 20.6215 4.01343 20.4305 4.01343C20.2395 4.01343 20.0524 4.06815 19.8915 4.17112C19.7306 4.27409 19.6025 4.42099 19.5225 4.59446L16.8869 10.3063C16.7413 10.622 16.4421 10.8394 16.0968 10.8804L9.85149 11.6215C9.66174 11.6439 9.48238 11.7202 9.33464 11.8413C9.1869 11.9625 9.07696 12.1234 9.01783 12.3051C8.95871 12.4868 8.95287 12.6816 9.00102 12.8665C9.04916 13.0514 9.14927 13.2187 9.28949 13.3485L13.9084 17.6184C14.1638 17.8545 14.2782 18.2064 14.2104 18.5476L12.9845 24.7185C12.9474 24.9058 12.9647 25.0998 13.0344 25.2776C13.1041 25.4554 13.2233 25.6095 13.3778 25.7217C13.5323 25.834 13.7157 25.8996 13.9063 25.9109C14.0969 25.9222 14.2868 25.8787 14.4535 25.7855L19.942 22.7129C20.2455 22.543 20.6155 22.543 20.919 22.7129L26.4075 25.7855C26.5743 25.879 26.7644 25.9229 26.9553 25.9117C27.1462 25.9005 27.3299 25.8348 27.4847 25.7224C27.6394 25.61 27.7586 25.4556 27.8282 25.2775C27.8979 25.0993 27.915 24.905 27.8775 24.7175L26.6516 18.5485C26.5838 18.2074 26.6981 17.8555 26.9534 17.6194L31.5715 13.3485C31.7117 13.2187 31.8118 13.0514 31.86 12.8665C31.9081 12.6816 31.9023 12.4868 31.8431 12.3051C31.784 12.1234 31.6741 11.9625 31.5263 11.8413C31.3786 11.7202 31.1992 11.6439 31.0095 11.6215L24.7632 10.8795C24.4179 10.8385 24.1187 10.6211 23.9731 10.3053L21.3385 4.59446Z" fill="url(#paint0_linear_10_677)"/>
</g>
<g filter="url(#filter1_d_10_677)">
<path fill-rule="evenodd" clip-rule="evenodd" d="M53.3385 4.59446C53.2585 4.42099 53.1304 4.27409 52.9695 4.17112C52.8086 4.06815 52.6215 4.01343 52.4305 4.01343C52.2395 4.01343 52.0524 4.06815 51.8915 4.17112C51.7306 4.27409 51.6025 4.42099 51.5225 4.59446L48.8869 10.3063C48.7413 10.622 48.4421 10.8394 48.0968 10.8804L41.8515 11.6215C41.6617 11.6439 41.4824 11.7202 41.3346 11.8413C41.1869 11.9625 41.077 12.1234 41.0178 12.3051C40.9587 12.4868 40.9529 12.6816 41.001 12.8665C41.0492 13.0514 41.1493 13.2187 41.2895 13.3485L45.9084 17.6184C46.1638 17.8545 46.2782 18.2064 46.2104 18.5476L44.9845 24.7185C44.9474 24.9058 44.9647 25.0998 45.0344 25.2776C45.1041 25.4554 45.2233 25.6095 45.3778 25.7217C45.5323 25.834 45.7157 25.8996 45.9063 25.9109C46.0969 25.9222 46.2868 25.8787 46.4535 25.7855L51.942 22.7129C52.2455 22.543 52.6155 22.543 52.919 22.7129L58.4075 25.7855C58.5743 25.879 58.7644 25.9229 58.9553 25.9117C59.1462 25.9005 59.3299 25.8348 59.4847 25.7224C59.6394 25.61 59.7586 25.4556 59.8282 25.2775C59.8979 25.0993 59.915 24.905 59.8775 24.7175L58.6516 18.5485C58.5838 18.2074 58.6981 17.8555 58.9534 17.6194L63.5715 13.3485C63.7117 13.2187 63.8118 13.0514 63.86 12.8665C63.9081 12.6816 63.9023 12.4868 63.8431 12.3051C63.784 12.1234 63.6741 11.9625 63.5263 11.8413C63.3786 11.7202 63.1992 11.6439 63.0095 11.6215L56.7632 10.8795C56.4179 10.8385 56.1187 10.6211 55.9731 10.3053L53.3385 4.59446Z" fill="url(#paint1_linear_10_677)"/>
</g>
<g filter="url(#filter2_d_10_677)">
<path fill-rule="evenodd" clip-rule="evenodd" d="M85.3385 4.59446C85.2585 4.42099 85.1304 4.27409 84.9695 4.17112C84.8086 4.06815 84.6215 4.01343 84.4305 4.01343C84.2395 4.01343 84.0524 4.06815 83.8915 4.17112C83.7306 4.27409 83.6025 4.42099 83.5225 4.59446L80.8869 10.3063C80.7413 10.622 80.4421 10.8394 80.0968 10.8804L73.8515 11.6215C73.6617 11.6439 73.4824 11.7202 73.3346 11.8413C73.1869 11.9625 73.077 12.1234 73.0178 12.3051C72.9587 12.4868 72.9529 12.6816 73.001 12.8665C73.0492 13.0514 73.1493 13.2187 73.2895 13.3485L77.9084 17.6184C78.1638 17.8545 78.2782 18.2064 78.2104 18.5476L76.9845 24.7185C76.9474 24.9058 76.9647 25.0998 77.0344 25.2776C77.1041 25.4554 77.2233 25.6095 77.3778 25.7217C77.5323 25.834 77.7157 25.8996 77.9063 25.9109C78.0969 25.9222 78.2868 25.8787 78.4535 25.7855L83.942 22.7129C84.2455 22.543 84.6155 22.543 84.919 22.7129L90.4075 25.7855C90.5743 25.879 90.7644 25.9229 90.9553 25.9117C91.1462 25.9005 91.3299 25.8348 91.4847 25.7224C91.6394 25.61 91.7586 25.4556 91.8282 25.2775C91.8979 25.0993 91.915 24.905 91.8775 24.7175L90.6516 18.5485C90.5838 18.2074 90.6981 17.8555 90.9534 17.6194L95.5715 13.3485C95.7117 13.2187 95.8118 13.0514 95.86 12.8665C95.9081 12.6816 95.9023 12.4868 95.8431 12.3051C95.784 12.1234 95.6741 11.9625 95.5263 11.8413C95.3786 11.7202 95.1992 11.6439 95.0095 11.6215L88.7632 10.8795C88.4179 10.8385 88.1187 10.6211 87.9731 10.3053L85.3385 4.59446Z" fill="url(#paint2_linear_10_677)"/>
</g>
<g filter="url(#filter3_d_10_677)">
<path fill-rule="evenodd" clip-rule="evenodd" d="M117.338 4.59446C117.258 4.42099 117.13 4.27409 116.969 4.17112C116.809 4.06815 116.622 4.01343 116.43 4.01343C116.239 4.01343 116.052 4.06815 115.891 4.17112C115.731 4.27409 115.603 4.42099 115.522 4.59446L112.887 10.3063C112.741 10.622 112.442 10.8394 112.097 10.8804L105.851 11.6215C105.662 11.6439 105.482 11.7202 105.335 11.8413C105.187 11.9625 105.077 12.1234 105.018 12.3051C104.959 12.4868 104.953 12.6816 105.001 12.8665C105.049 13.0514 105.149 13.2187 105.289 13.3485L109.908 17.6184C110.164 17.8545 110.278 18.2064 110.21 18.5476L108.984 24.7185C108.947 24.9058 108.965 25.0998 109.034 25.2776C109.104 25.4554 109.223 25.6095 109.378 25.7217C109.532 25.834 109.716 25.8996 109.906 25.9109C110.097 25.9222 110.287 25.8787 110.453 25.7855L115.942 22.7129C116.246 22.543 116.615 22.543 116.919 22.7129L122.407 25.7855C122.574 25.879 122.764 25.9229 122.955 25.9117C123.146 25.9005 123.33 25.8348 123.485 25.7224C123.639 25.61 123.759 25.4556 123.828 25.2775C123.898 25.0993 123.915 24.905 123.877 24.7175L122.652 18.5485C122.584 18.2074 122.698 17.8555 122.953 17.6194L127.571 13.3485C127.712 13.2187 127.812 13.0514 127.86 12.8665C127.908 12.6816 127.902 12.4868 127.843 12.3051C127.784 12.1234 127.674 11.9625 127.526 11.8413C127.379 11.7202 127.199 11.6439 127.009 11.6215L120.763 10.8795C120.418 10.8385 120.119 10.6211 119.973 10.3053L117.338 4.59446Z" fill="url(#paint3_linear_10_677)"/>
</g>
<g filter="url(#filter4_d_10_677)">
<path fill-rule="evenodd" clip-rule="evenodd" d="M149.338 4.59446C149.258 4.42099 149.13 4.27409 148.969 4.17112C148.809 4.06815 148.622 4.01343 148.43 4.01343C148.239 4.01343 148.052 4.06815 147.891 4.17112C147.731 4.27409 147.603 4.42099 147.522 4.59446L144.887 10.3063C144.741 10.622 144.442 10.8394 144.097 10.8804L137.851 11.6215C137.662 11.6439 137.482 11.7202 137.335 11.8413C137.187 11.9625 137.077 12.1234 137.018 12.3051C136.959 12.4868 136.953 12.6816 137.001 12.8665C137.049 13.0514 137.149 13.2187 137.289 13.3485L141.908 17.6184C142.164 17.8545 142.278 18.2064 142.21 18.5476L140.984 24.7185C140.947 24.9058 140.965 25.0998 141.034 25.2776C141.104 25.4554 141.223 25.6095 141.378 25.7217C141.532 25.834 141.716 25.8996 141.906 25.9109C142.097 25.9222 142.287 25.8787 142.453 25.7855L147.942 22.7129C148.246 22.543 148.615 22.543 148.919 22.7129L154.407 25.7855C154.574 25.879 154.764 25.9229 154.955 25.9117C155.146 25.9005 155.33 25.8348 155.485 25.7224C155.639 25.61 155.759 25.4556 155.828 25.2775C155.898 25.0993 155.915 24.905 155.877 24.7175L154.652 18.5485C154.584 18.2074 154.698 17.8555 154.953 17.6194L159.571 13.3485C159.712 13.2187 159.812 13.0514 159.86 12.8665C159.908 12.6816 159.902 12.4868 159.843 12.3051C159.784 12.1234 159.674 11.9625 159.526 11.8413C159.379 11.7202 159.199 11.6439 159.009 11.6215L152.763 10.8795C152.418 10.8385 152.119 10.6211 151.973 10.3053L149.338 4.59446Z" fill="url(#paint4_linear_10_677)"/>
</g>
<defs>
<filter id="filter0_d_10_677" x="0.96875" y="0.0134277" width="38.9238" height="37.8999" filterUnits="userSpaceOnUse" color-interpolation-filters="sRGB">
<feFlood flood-opacity="0" result="BackgroundImageFix"/>
<feColorMatrix in="SourceAlpha" type="matrix" values="0 0 0 0 0 0 0 0 0 0 0 0 0 0 0 0 0 0 127 0" result="hardAlpha"/>
<feOffset dy="4"/>
<feGaussianBlur stdDeviation="4"/>
<feComposite in2="hardAlpha" operator="out"/>
<feColorMatrix type="matrix" values="0 0 0 0 0 0 0 0 0 0 0 0 0 0 0 0 0 0 0.1 0"/>
<feBlend mode="normal" in2="BackgroundImageFix" result="effect1_dropShadow_10_677"/>
<feBlend mode="normal" in="SourceGraphic" in2="effect1_dropShadow_10_677" result="shape"/>
</filter>
<filter id="filter1_d_10_677" x="32.9688" y="0.0134277" width="38.9238" height="37.8999" filterUnits="userSpaceOnUse" color-interpolation-filters="sRGB">
<feFlood flood-opacity="0" result="BackgroundImageFix"/>
<feColorMatrix in="SourceAlpha" type="matrix" values="0 0 0 0 0 0 0 0 0 0 0 0 0 0 0 0 0 0 127 0" result="hardAlpha"/>
<feOffset dy="4"/>
<feGaussianBlur stdDeviation="4"/>
<feComposite in2="hardAlpha" operator="out"/>
<feColorMatrix type="matrix" values="0 0 0 0 0 0 0 0 0 0 0 0 0 0 0 0 0 0 0.1 0"/>
<feBlend mode="normal" in2="BackgroundImageFix" result="effect1_dropShadow_10_677"/>
<feBlend mode="normal" in="SourceGraphic" in2="effect1_dropShadow_10_677" result="shape"/>
</filter>
<filter id="filter2_d_10_677" x="64.9688" y="0.0134277" width="38.9238" height="37.8999" filterUnits="userSpaceOnUse" color-interpolation-filters="sRGB">
<feFlood flood-opacity="0" result="BackgroundImageFix"/>
<feColorMatrix in="SourceAlpha" type="matrix" values="0 0 0 0 0 0 0 0 0 0 0 0 0 0 0 0 0 0 127 0" result="hardAlpha"/>
<feOffset dy="4"/>
<feGaussianBlur stdDeviation="4"/>
<feComposite in2="hardAlpha" operator="out"/>
<feColorMatrix type="matrix" values="0 0 0 0 0 0 0 0 0 0 0 0 0 0 0 0 0 0 0.1 0"/>
<feBlend mode="normal" in2="BackgroundImageFix" result="effect1_dropShadow_10_677"/>
<feBlend mode="normal" in="SourceGraphic" in2="effect1_dropShadow_10_677" result="shape"/>
</filter>
<filter id="filter3_d_10_677" x="96.9688" y="0.0134277" width="38.9238" height="37.8999" filterUnits="userSpaceOnUse" color-interpolation-filters="sRGB">
<feFlood flood-opacity="0" result="BackgroundImageFix"/>
<feColorMatrix in="SourceAlpha" type="matrix" values="0 0 0 0 0 0 0 0 0 0 0 0 0 0 0 0 0 0 127 0" result="hardAlpha"/>
<feOffset dy="4"/>
<feGaussianBlur stdDeviation="4"/>
<feComposite in2="hardAlpha" operator="out"/>
<feColorMatrix type="matrix" values="0 0 0 0 0 0 0 0 0 0 0 0 0 0 0 0 0 0 0.1 0"/>
<feBlend mode="normal" in2="BackgroundImageFix" result="effect1_dropShadow_10_677"/>
<feBlend mode="normal" in="SourceGraphic" in2="effect1_dropShadow_10_677" result="shape"/>
</filter>
<filter id="filter4_d_10_677" x="128.969" y="0.0134277" width="38.9238" height="37.8999" filterUnits="userSpaceOnUse" color-interpolation-filters="sRGB">
<feFlood flood-opacity="0" result="BackgroundImageFix"/>
<feColorMatrix in="SourceAlpha" type="matrix" values="0 0 0 0 0 0 0 0 0 0 0 0 0 0 0 0 0 0 127 0" result="hardAlpha"/>
<feOffset dy="4"/>
<feGaussianBlur stdDeviation="4"/>
<feComposite in2="hardAlpha" operator="out"/>
<feColorMatrix type="matrix" values="0 0 0 0 0 0 0 0 0 0 0 0 0 0 0 0 0 0 0.1 0"/>
<feBlend mode="normal" in2="BackgroundImageFix" result="effect1_dropShadow_10_677"/>
<feBlend mode="normal" in="SourceGraphic" in2="effect1_dropShadow_10_677" result="shape"/>
</filter>
<linearGradient id="paint0_linear_10_677" x1="20.4305" y1="4.01343" x2="20.4305" y2="25.9134" gradientUnits="userSpaceOnUse">
<stop stop-color="#F4CC14"/>
<stop offset="1" stop-color="#D0B000"/>
</linearGradient>
<linearGradient id="paint1_linear_10_677" x1="52.4305" y1="4.01343" x2="52.4305" y2="25.9134" gradientUnits="userSpaceOnUse">
<stop stop-color="#F4CC14"/>
<stop offset="1" stop-color="#D0B000"/>
</linearGradient>
<linearGradient id="paint2_linear_10_677" x1="84.4305" y1="4.01343" x2="84.4305" y2="25.9134" gradientUnits="userSpaceOnUse">
<stop stop-color="#F4CC14"/>
<stop offset="1" stop-color="#D0B000"/>
</linearGradient>
<linearGradient id="paint3_linear_10_677" x1="116.43" y1="4.01343" x2="116.43" y2="25.9134" gradientUnits="userSpaceOnUse">
<stop stop-color="#F4CC14"/>
<stop offset="1" stop-color="#D0B000"/>
</linearGradient>
<linearGradient id="paint4_linear_10_677" x1="148.43" y1="4.01343" x2="148.43" y2="25.9134" gradientUnits="userSpaceOnUse">
<stop stop-color="#F4CC14"/>
<stop offset="1" stop-color="#D0B000"/>
</linearGradient>
</defs>
</svg>
