<svg width="48" height="48" viewBox="0 0 48 48" fill="none" xmlns="http://www.w3.org/2000/svg">
<path d="M24 0C10.768 0 0 10.768 0 24C0 37.232 10.768 48 24 48C37.232 48 48 37.232 48 24C48 10.768 37.232 0 24 0ZM24 4C35.07 4 44 12.93 44 24C44.0049 28.7879 42.288 33.418 39.1627 37.0452C36.0374 40.6724 31.712 43.055 26.976 43.758V29.832H32.672L33.566 24.046H26.976V20.886C26.976 18.486 27.766 16.352 30.012 16.352H33.622V11.304C32.988 11.218 31.646 11.032 29.11 11.032C23.814 11.032 20.71 13.828 20.71 20.2V24.046H15.266V29.832H20.71V43.708C16.0395 42.9393 11.7945 40.535 8.73338 36.9247C5.67229 33.3144 3.99458 28.7333 4 24C4 12.93 12.93 4 24 4Z" fill="white"/>
</svg>
