<svg width="48" height="48" viewBox="0 0 48 48" fill="none" xmlns="http://www.w3.org/2000/svg">
<path d="M41.5 13.5C38.3897 6.5 32.9437 3 25.1667 3C13.5 3 6.5 8.83333 6.5 24C6.5 39.1667 14.6667 45 25.1667 45C35.6667 45 41.5 38 41.5 33.3333C41.5 28.6667 39.1667 21.6667 25.1667 21.6667C19.3333 21.6667 18.1667 24.5833 18.1667 27.5C18.1667 31 20.5 33.3333 24 33.3333C29.8333 33.3333 32.1667 29.8333 32.1667 21.6667C32.1667 13.5 27.5 12.3333 25.1667 12.3333C22.8333 12.3333 20.8897 13.1103 19.3333 14.6667" stroke="white" stroke-width="4.66667" stroke-linecap="round" stroke-linejoin="round"/>
</svg>
