<svg width="48" height="48" viewBox="0 0 48 48" fill="none" xmlns="http://www.w3.org/2000/svg">
<path d="M33.2754 8.8696C31.4568 8.86929 29.7108 9.58273 28.4129 10.8565C27.115 12.1302 26.3689 13.8625 26.335 15.6807L26.268 19.45C26.2644 19.6526 26.218 19.8522 26.1318 20.0355C26.0456 20.2189 25.9216 20.3819 25.7678 20.5139C25.6141 20.6459 25.4342 20.7439 25.24 20.8015C25.0457 20.859 24.8414 20.8747 24.6406 20.8477L20.9024 20.3379C15.9891 19.6678 11.2793 17.4062 6.75846 13.6417C5.32971 21.5633 8.1226 27.0509 14.8547 31.2845L19.0357 33.9123C19.234 34.037 19.3988 34.2084 19.5157 34.4114C19.6325 34.6145 19.6979 34.843 19.7062 35.0771C19.7145 35.3113 19.6653 35.5439 19.563 35.7546C19.4608 35.9654 19.3085 36.148 19.1195 36.2864L15.3094 39.0721C17.5758 39.2157 19.7273 39.1151 21.5127 38.761C32.8039 36.5065 40.3114 28.0106 40.3114 13.9959C40.3114 12.8519 37.8871 8.8696 33.2754 8.8696ZM21.5486 15.5946C21.5903 13.2876 22.3117 11.0443 23.6224 9.14535C24.9331 7.24645 26.7749 5.77641 28.9171 4.91927C31.0593 4.06213 33.4068 3.85599 35.6656 4.32666C37.9244 4.79733 39.9942 5.92389 41.6157 7.5653C43.3173 7.55333 44.7652 7.98411 48.0009 6.01927C47.2015 9.94416 46.8042 11.6505 45.0979 13.9935C45.0979 32.2801 33.8569 41.1757 22.4484 43.4517C14.6298 45.012 3.25478 42.4489 0 39.0434C1.6585 38.9165 8.40739 38.1914 12.3083 35.3339C9.0057 33.156 -4.12831 25.4259 4.50404 4.64796C8.55577 9.37936 12.6649 12.5982 16.8291 14.3094C19.5981 15.4462 20.2802 15.4222 21.551 15.5969L21.5486 15.5946Z" fill="white"/>
</svg>
