<svg width="32" height="32" viewBox="0 0 32 32" fill="none" xmlns="http://www.w3.org/2000/svg">
<rect x="1" y="1" width="30" height="30" rx="15" fill="#EDEFEE"/>
<path d="M13.9991 17.85L20.5324 11.3166C20.7769 11.0722 21.088 10.95 21.4658 10.95C21.8435 10.95 22.1546 11.0722 22.3991 11.3166C22.6435 11.5611 22.7658 11.8722 22.7658 12.25C22.7658 12.6277 22.6435 12.9388 22.3991 13.1833L14.9324 20.65C14.6658 20.9166 14.3546 21.05 13.9991 21.05C13.6435 21.05 13.3324 20.9166 13.0658 20.65L9.59909 17.1833C9.35464 16.9388 9.23242 16.6277 9.23242 16.25C9.23242 15.8722 9.35464 15.5611 9.59909 15.3166C9.84353 15.0722 10.1546 14.95 10.5324 14.95C10.9102 14.95 11.2213 15.0722 11.4658 15.3166L13.9991 17.85Z" fill="#495E57"/>
<rect x="1" y="1" width="30" height="30" rx="15" stroke="#EDEFEE" stroke-width="2"/>
</svg>
