<svg width="32" height="32" viewBox="0 0 32 32" fill="none" xmlns="http://www.w3.org/2000/svg">
<rect x="1" y="1" width="30" height="30" rx="15" fill="#EDEFEE"/>
<path d="M11.9041 22V20.2273L16.0462 16.392C16.3984 16.0511 16.6939 15.7443 16.9325 15.4716C17.175 15.1989 17.3587 14.9318 17.4837 14.6705C17.6087 14.4053 17.6712 14.1193 17.6712 13.8125C17.6712 13.4716 17.5935 13.178 17.4382 12.9318C17.2829 12.6818 17.0708 12.4905 16.8018 12.358C16.5329 12.2216 16.228 12.1534 15.8871 12.1534C15.531 12.1534 15.2204 12.2254 14.9553 12.3693C14.6901 12.5133 14.4856 12.7197 14.3416 12.9886C14.1977 13.2576 14.1257 13.5777 14.1257 13.9489H11.7905C11.7905 13.1875 11.9628 12.5265 12.3075 11.9659C12.6522 11.4053 13.1352 10.9716 13.7564 10.6648C14.3776 10.358 15.0935 10.2045 15.9041 10.2045C16.7375 10.2045 17.4628 10.3523 18.0803 10.6477C18.7015 10.9394 19.1844 11.3447 19.5291 11.8636C19.8738 12.3826 20.0462 12.9773 20.0462 13.6477C20.0462 14.0871 19.959 14.5208 19.7848 14.9489C19.6143 15.3769 19.3094 15.8523 18.87 16.375C18.4306 16.8939 17.8113 17.517 17.0121 18.2443L15.3132 19.9091V19.9886H20.1996V22H11.9041Z" fill="#495E57"/>
<rect x="1" y="1" width="30" height="30" rx="15" stroke="#EDEFEE" stroke-width="2"/>
</svg>
