<svg width="32" height="32" viewBox="0 0 32 32" fill="none" xmlns="http://www.w3.org/2000/svg">
<rect x="1" y="1" width="30" height="30" rx="15" fill="#EDEFEE"/>
<path d="M15.9709 22.1591C15.1224 22.1591 14.3667 22.0133 13.7038 21.7216C13.0447 21.4261 12.5239 21.0208 12.1413 20.5057C11.7625 19.9867 11.5675 19.3883 11.5561 18.7102H14.0334C14.0485 18.9943 14.1413 19.2443 14.3118 19.4602C14.486 19.6723 14.7171 19.8371 15.005 19.9545C15.2929 20.072 15.6167 20.1307 15.9766 20.1307C16.3516 20.1307 16.683 20.0644 16.9709 19.9318C17.2588 19.7992 17.4841 19.6155 17.647 19.3807C17.8099 19.1458 17.8913 18.875 17.8913 18.5682C17.8913 18.2576 17.8042 17.983 17.63 17.7443C17.4595 17.5019 17.2133 17.3125 16.8913 17.1761C16.5732 17.0398 16.1944 16.9716 15.755 16.9716H14.6697V15.1648H15.755C16.1262 15.1648 16.4538 15.1004 16.7379 14.9716C17.0258 14.8428 17.2493 14.6648 17.4084 14.4375C17.5675 14.2064 17.647 13.9375 17.647 13.6307C17.647 13.339 17.5769 13.0833 17.4368 12.8636C17.3004 12.6402 17.1072 12.4659 16.8572 12.3409C16.611 12.2159 16.3232 12.1534 15.9936 12.1534C15.6603 12.1534 15.3554 12.214 15.0788 12.3352C14.8023 12.4527 14.5807 12.6212 14.4141 12.8409C14.2474 13.0606 14.1584 13.3182 14.147 13.6136H11.7891C11.8004 12.9432 11.9917 12.3523 12.3629 11.8409C12.7341 11.3295 13.2341 10.9299 13.8629 10.642C14.4955 10.3504 15.2095 10.2045 16.005 10.2045C16.808 10.2045 17.5107 10.3504 18.1129 10.642C18.7152 10.9337 19.183 11.3277 19.5163 11.8239C19.8535 12.3163 20.0201 12.8693 20.0163 13.483C20.0201 14.1345 19.8175 14.678 19.4084 15.1136C19.0031 15.5492 18.4747 15.8258 17.8232 15.9432V16.0341C18.6792 16.1439 19.3307 16.4413 19.7777 16.9261C20.2285 17.4072 20.4519 18.0095 20.4482 18.733C20.4519 19.3958 20.2607 19.9848 19.8743 20.5C19.4917 21.0152 18.9633 21.4205 18.2891 21.7159C17.6148 22.0114 16.8421 22.1591 15.9709 22.1591Z" fill="#495E57"/>
<rect x="1" y="1" width="30" height="30" rx="15" stroke="#EDEFEE" stroke-width="2"/>
</svg>
